<?xml version="1.0" encoding="utf-8"?>
<!-- Svg Vector Icons : http://www.onlinewebfonts.com/icon -->
<!DOCTYPE svg PUBLIC "-//W3C//DTD SVG 1.1//EN" "http://www.w3.org/Graphics/SVG/1.1/DTD/svg11.dtd">
<svg version="1.1" xmlns="http://www.w3.org/2000/svg" xmlns:xlink="http://www.w3.org/1999/xlink" x="0px" y="0px" viewBox="0 0 1000 1000" enable-background="new 0 0 1000 1000" xml:space="preserve">
<metadata> Svg Vector Icons : http://www.onlinewebfonts.com/icon </metadata>
<g><g transform="translate(0.000000,511.000000) scale(0.100000,-0.100000)"><path d="M2540.2,2330.7L100,162.1l714.3-5.9l712.4-3.9v-2213.8v-2213.9h826.5h826.5v1485.7v1485.7H5000h1820.3v-1485.7v-1485.7h826.5h826.5v2213.9V152.3h714.3l712.4,2l-100.4,92.5c-281.4,261.7-4778,4244.7-4797.7,4248.6C4990.2,4497.4,3882.3,3523.3,2540.2,2330.7z M4628.1,2403.5c340.4-161.4,348.3-802.9,11.8-848.2c-112.2-15.7-169.2,3.9-261.7,86.6c-108.2,98.4-159.4,206.6-171.2,362.1c-9.8,149.6,15.7,247.9,90.5,334.5C4380.1,2439,4502.1,2462.6,4628.1,2403.5z M5678.9,2366.2c88.6-84.6,125.9-200.7,114.1-358.2c-11.8-159.4-61-267.6-171.2-366c-92.5-82.7-149.6-102.3-261.7-86.6c-334.5,45.3-330.6,675,7.9,848.2C5464.4,2452.7,5606.1,2435,5678.9,2366.2z M3961,1705c253.9-124,344.4-545.1,161.4-755.7c-120-135.8-293.2-129.9-438.8,17.7c-224.3,222.4-196.8,659.2,47.2,757.6C3807.5,1754.1,3868.5,1750.2,3961,1705z M6326.3,1691.2c92.5-66.9,139.7-177.1,139.7-320.8c0-175.1-47.2-301.1-149.6-403.4c-287.3-287.3-635.6,11.8-509.7,436.9C5887.5,1677.4,6149.2,1823,6326.3,1691.2z M5196.8,1256.3c118.1-55.1,171.2-124,312.9-407.4c145.6-291.2,196.8-348.3,427-474.3c249.9-137.8,344.4-285.3,303.1-482.1C6202.4-288.5,6035.1-461.7,5860-501c-112.2-23.6-251.9-7.9-614,72.8c-163.3,37.4-328.6,37.4-492,0c-362.1-80.7-501.8-96.4-614-72.8c-175.1,39.4-342.4,212.5-379.8,393.6c-41.3,196.8,53.1,344.4,303.1,482.1c226.3,124,279.4,183,425.1,466.4c147.6,291.2,194.8,354.2,310.9,411.3C4905.5,1305.5,5086.6,1307.4,5196.8,1256.3z"/></g></g>
</svg>