<?xml version="1.0" standalone="no"?>
<!DOCTYPE svg PUBLIC "-//W3C//DTD SVG 20010904//EN"
 "http://www.w3.org/TR/2001/REC-SVG-20010904/DTD/svg10.dtd">
<svg version="1.0" xmlns="http://www.w3.org/2000/svg"
 width="512.000000pt" height="512.000000pt" viewBox="0 0 512.000000 512.000000"
 preserveAspectRatio="xMidYMid meet">
<metadata>
Created by potrace 1.16, written by Peter Selinger 2001-2019
</metadata>
<g transform="translate(0.000000,512.000000) scale(0.100000,-0.100000)"
fill="#000000" stroke="none">
<path d="M0 2560 l0 -2560 2560 0 2560 0 0 2560 0 2560 -2560 0 -2560 0 0
-2560z m1867 64 c74 -19 127 -48 175 -95 22 -21 51 -42 64 -45 35 -9 98 0 209
31 89 24 117 27 250 27 133 0 161 -3 250 -27 111 -31 174 -40 209 -31 13 3 42
24 64 45 71 69 158 102 304 116 l76 7 12 -72 c7 -40 10 -114 8 -164 -4 -94
-15 -125 -73 -205 -33 -45 -32 -89 5 -199 116 -346 20 -626 -261 -766 -178
-89 -331 -120 -594 -120 -263 0 -416 31 -594 120 -281 140 -377 420 -261 766
37 110 38 154 5 199 -58 80 -69 111 -73 205 -2 50 1 124 8 164 l12 72 76 -7
c42 -4 100 -13 129 -21z"/>
<path d="M2045 2061 c-67 -41 -92 -98 -74 -165 46 -169 309 -141 309 33 0 55
-27 103 -72 131 -43 26 -122 27 -163 1z"/>
<path d="M2922 2060 c-71 -44 -95 -143 -49 -211 51 -77 178 -90 243 -25 77 77
59 192 -38 242 -40 21 -117 18 -156 -6z"/>
</g>
</svg>
